<?xml version="1.0" standalone="no"?>
<!DOCTYPE svg PUBLIC "-//W3C//DTD SVG 20010904//EN"
 "http://www.w3.org/TR/2001/REC-SVG-20010904/DTD/svg10.dtd">
<svg version="1.0" xmlns="http://www.w3.org/2000/svg"
 width="1080.000000pt" height="1080.000000pt" viewBox="0 0 1080.000000 1080.000000"
 preserveAspectRatio="xMidYMid meet">
<metadata>
Created by potrace 1.16, written by Peter Selinger 2001-2019
</metadata>
<g transform="translate(0.000000,1080.000000) scale(0.100000,-0.100000)"
fill="#000000" stroke="none">
<path d="M0 5400 l0 -5400 5400 0 5400 0 0 5400 0 5400 -5400 0 -5400 0 0
-5400z m3515 4516 c94 -10 136 -16 195 -26 30 -5 72 -12 93 -15 68 -11 277
-74 391 -119 120 -47 249 -110 358 -174 l68 -39 75 13 c42 7 102 16 133 19 31
4 68 8 82 11 50 8 289 18 445 18 188 0 365 -10 513 -29 23 -3 63 -8 90 -11 49
-6 83 -11 118 -18 12 -2 39 -7 60 -11 78 -12 116 -20 169 -33 22 -6 51 -13 65
-16 49 -10 66 -14 170 -45 273 -80 482 -162 748 -293 123 -61 200 -104 196
-110 -4 -6 -2 -8 3 -5 18 11 406 -237 491 -313 10 -8 40 -32 67 -53 198 -152
504 -455 670 -665 11 -14 38 -48 61 -76 220 -275 462 -701 603 -1060 69 -176
143 -400 167 -508 2 -10 6 -26 8 -36 2 -9 9 -35 14 -57 6 -22 13 -51 16 -65 3
-14 12 -59 20 -100 8 -41 17 -95 21 -120 3 -25 8 -52 10 -60 2 -8 7 -44 10
-80 4 -36 8 -72 10 -81 27 -141 27 -789 -1 -959 -2 -14 -7 -50 -10 -80 -20
-164 -26 -200 -33 -196 -3 2 -6 -12 -7 -32 -1 -21 -5 -53 -9 -72 -12 -56 -10
-71 27 -150 31 -66 76 -177 83 -205 1 -5 5 -17 8 -25 10 -28 37 -116 43 -141
3 -13 6 -28 8 -34 9 -30 16 -63 20 -85 2 -14 7 -36 10 -50 7 -29 13 -65 22
-129 3 -25 8 -57 11 -71 9 -44 11 -483 2 -540 -10 -64 -17 -127 -18 -153 -1
-10 -5 -16 -9 -13 -4 2 -6 -11 -4 -31 4 -27 1 -34 -8 -28 -8 5 -11 4 -7 -2 9
-15 -4 -104 -13 -98 -5 3 -6 -5 -2 -17 4 -16 2 -19 -8 -13 -9 6 -11 4 -5 -4
10 -17 -35 -172 -48 -164 -6 4 -7 1 -3 -6 10 -16 -2 -64 -13 -56 -5 3 -7 -5
-3 -17 4 -16 2 -19 -8 -13 -9 5 -11 4 -6 -4 9 -14 -2 -53 -14 -46 -4 3 -6 -5
-2 -17 4 -16 2 -19 -8 -13 -8 5 -11 4 -7 -2 9 -15 -17 -75 -28 -66 -4 5 -5 3
-2 -3 9 -16 -24 -95 -36 -87 -6 3 -7 1 -3 -6 8 -13 -54 -132 -66 -125 -4 3 -5
-2 -2 -10 3 -9 0 -18 -8 -21 -8 -3 -15 -11 -15 -18 0 -17 -33 -67 -44 -67 -5
0 -8 -6 -7 -12 2 -7 -2 -12 -8 -11 -7 1 -11 -5 -10 -15 0 -9 -4 -16 -10 -15
-7 1 -11 -5 -10 -15 0 -9 -5 -16 -12 -14 -6 1 -11 -1 -11 -5 3 -21 -2 -33 -13
-27 -7 4 -8 3 -4 -5 10 -15 -13 -43 -27 -34 -6 3 -7 1 -3 -6 10 -15 -13 -43
-27 -34 -5 3 -7 2 -4 -4 8 -13 -43 -74 -56 -66 -5 3 -7 2 -4 -4 8 -13 -22 -55
-34 -47 -5 3 -8 0 -7 -8 2 -7 -3 -12 -10 -10 -6 1 -11 -4 -10 -10 2 -7 -2 -12
-8 -11 -7 1 -11 -5 -10 -15 0 -10 -6 -16 -16 -16 -10 1 -17 -1 -16 -5 2 -19
-3 -31 -12 -26 -5 3 -10 -1 -10 -10 0 -9 -4 -13 -10 -10 -5 3 -10 2 -10 -4 0
-15 -42 -51 -52 -45 -5 3 -7 0 -6 -8 2 -7 -3 -12 -10 -10 -6 1 -11 -4 -10 -10
2 -7 -3 -12 -10 -10 -8 1 -11 -2 -8 -7 8 -12 -21 -34 -34 -26 -6 4 -9 1 -8 -7
2 -7 -3 -12 -10 -10 -8 1 -11 -2 -8 -7 8 -13 -21 -34 -35 -25 -7 4 -9 3 -5 -4
8 -13 -33 -44 -47 -35 -6 3 -7 1 -4 -4 9 -14 -19 -37 -34 -27 -8 4 -9 3 -5 -4
7 -11 -6 -17 -27 -13 -5 1 -6 -3 -3 -8 8 -13 -21 -34 -36 -25 -7 4 -10 4 -6
-1 11 -12 -60 -58 -75 -49 -6 4 -9 4 -5 -1 11 -11 -29 -38 -44 -29 -6 4 -8 3
-5 -3 8 -13 -50 -46 -65 -37 -6 4 -8 3 -5 -3 9 -14 -110 -76 -129 -69 -10 4
-13 2 -8 -6 5 -8 2 -9 -10 -5 -11 5 -15 3 -10 -5 5 -8 2 -9 -10 -5 -9 4 -15 3
-12 -2 8 -12 -50 -35 -65 -25 -8 5 -9 3 -4 -6 6 -10 3 -12 -13 -8 -12 4 -20 2
-17 -2 5 -8 -47 -30 -138 -60 -21 -6 -45 -9 -53 -6 -8 3 -13 2 -10 -3 5 -7
-46 -25 -103 -37 -7 -1 -35 -8 -62 -14 -26 -7 -53 -8 -60 -4 -7 4 -9 3 -6 -3
9 -15 -39 -23 -54 -9 -8 8 -10 8 -6 0 4 -7 -17 -14 -58 -20 -45 -7 -65 -7 -65
0 0 7 -3 7 -8 0 -9 -15 -82 -23 -83 -9 0 5 -3 4 -6 -3 -4 -10 -8 -10 -21 0
-12 10 -14 10 -8 1 7 -13 -63 -18 -189 -14 -22 0 -70 1 -107 0 -36 0 -69 5
-73 11 -4 6 -12 7 -21 2 -21 -12 -85 -2 -77 12 4 6 -1 5 -10 -3 -9 -7 -17 -9
-17 -3 0 5 -9 8 -20 5 -11 -3 -28 1 -37 8 -9 8 -14 9 -10 2 9 -14 -31 -6 -52
11 -10 7 -13 7 -8 0 4 -7 -4 -9 -24 -6 -16 2 -29 8 -29 12 0 5 -9 6 -19 3 -11
-3 -34 2 -51 10 -17 9 -28 12 -25 7 3 -4 -4 -6 -15 -3 -11 3 -17 10 -13 16 3
6 1 7 -6 3 -19 -12 -63 2 -54 17 4 8 1 7 -10 -2 -11 -8 -17 -9 -17 -3 0 7 -7
9 -17 5 -10 -4 -14 -2 -10 4 5 7 -1 9 -15 5 -13 -3 -19 -1 -15 5 5 7 -1 9 -15
5 -16 -4 -19 -2 -13 8 5 9 4 11 -4 6 -7 -4 -20 -4 -29 0 -9 4 -26 9 -37 11
-11 2 -21 8 -23 13 -2 5 -10 6 -19 3 -11 -4 -14 -2 -9 5 4 8 2 10 -7 6 -8 -3
-21 1 -28 9 -8 7 -20 12 -28 9 -9 -3 -11 0 -6 8 5 8 4 11 -3 7 -13 -9 -173 63
-166 74 3 5 -3 6 -12 2 -10 -3 -15 -2 -12 3 4 5 -11 9 -32 9 -21 0 -36 -3 -34
-6 2 -4 -10 -9 -26 -11 -17 -3 -30 0 -30 6 0 6 -4 5 -9 -3 -5 -8 -18 -12 -30
-8 -12 3 -21 0 -21 -5 0 -6 -8 -4 -17 3 -14 12 -16 12 -9 0 7 -11 1 -13 -28
-9 -20 2 -36 0 -36 -5 0 -5 -8 -3 -17 4 -14 12 -16 12 -9 0 7 -11 1 -13 -28
-9 -20 2 -36 0 -36 -5 0 -5 -8 -3 -17 4 -9 8 -14 9 -10 3 9 -15 -66 -23 -90
-11 -11 7 -14 6 -9 -2 10 -15 -7 -14 -23 2 -11 9 -13 9 -7 0 5 -10 -6 -13 -41
-14 -26 -1 -55 -2 -63 -3 -8 -1 -25 2 -37 6 -13 4 -25 3 -29 -3 -4 -8 -9 -7
-15 2 -7 12 -9 12 -9 0 0 -11 -3 -11 -17 0 -11 10 -14 10 -9 2 4 -7 3 -13 -1
-13 -5 0 -15 6 -22 13 -11 10 -13 10 -7 0 4 -7 3 -13 -1 -13 -5 0 -15 6 -22
13 -11 10 -13 10 -7 0 9 -16 -10 -17 -19 -3 -5 8 -11 7 -21 -1 -11 -9 -14 -8
-14 2 0 12 -2 12 -9 0 -6 -9 -11 -10 -15 -2 -4 6 -13 8 -19 4 -20 -12 -200 -4
-209 10 -6 9 -8 8 -8 -2 0 -11 -3 -11 -17 0 -9 8 -14 10 -11 4 4 -6 -12 -9
-43 -7 -34 3 -47 8 -42 15 4 7 -1 6 -10 -2 -9 -7 -17 -9 -17 -4 0 5 -13 8 -30
5 -21 -3 -30 0 -30 9 0 12 -2 12 -9 0 -5 -8 -11 -9 -15 -3 -3 6 -15 8 -26 5
-11 -3 -28 1 -37 8 -9 8 -14 9 -11 4 4 -7 -6 -9 -28 -7 -18 2 -32 7 -30 11 3
4 -11 5 -31 3 -23 -3 -33 -1 -29 6 4 6 -2 8 -14 5 -11 -3 -28 1 -37 8 -9 8
-14 9 -10 2 9 -14 -31 -6 -52 11 -11 8 -13 8 -8 -1 5 -8 -11 -6 -50 4 -32 8
-66 17 -75 19 -10 2 -28 7 -40 10 -13 3 -30 7 -38 9 -8 2 -23 4 -33 4 -11 1
-15 6 -11 13 4 7 3 8 -5 4 -16 -10 -151 26 -144 38 3 5 1 6 -6 2 -11 -7 -106
19 -126 34 -11 9 -16 10 -41 10 -8 0 -13 4 -10 9 3 5 0 9 -7 8 -39 -1 -58 4
-51 15 4 6 3 8 -3 5 -15 -9 -94 24 -86 36 3 6 1 7 -5 3 -16 -10 -63 4 -55 17
3 5 2 7 -4 4 -15 -9 -94 24 -86 36 3 6 2 7 -4 4 -15 -9 -94 24 -86 36 3 6 1 7
-5 3 -14 -9 -155 58 -145 69 4 4 2 5 -4 1 -16 -9 -56 17 -45 29 4 5 2 5 -5 1
-16 -9 -64 14 -56 27 3 6 1 7 -5 3 -14 -8 -145 68 -135 79 5 4 2 5 -4 1 -16
-9 -56 17 -45 29 4 5 2 5 -5 1 -16 -9 -255 152 -247 166 4 7 2 8 -4 4 -15 -9
-84 43 -75 57 3 6 1 7 -6 3 -13 -8 -78 42 -73 56 1 5 -2 7 -7 3 -13 -8 -52 26
-44 38 3 6 1 7 -5 3 -14 -8 -53 24 -45 37 3 6 2 7 -4 4 -6 -4 -25 7 -44 24
-19 17 -55 49 -81 71 -26 23 -44 46 -41 52 3 6 2 7 -2 3 -11 -9 -186 163 -179
175 3 5 1 7 -5 6 -14 -4 -102 93 -94 105 3 6 1 7 -5 4 -5 -4 -30 17 -54 45
-23 29 -51 62 -60 73 -58 69 -86 110 -81 119 3 5 1 6 -5 2 -13 -8 -35 28 -24
39 4 5 2 5 -4 2 -14 -8 -57 50 -48 65 4 6 3 8 -3 5 -13 -8 -56 50 -47 65 4 6
3 8 -3 5 -33 -21 -439 717 -416 757 3 6 2 7 -2 3 -11 -10 -48 81 -39 95 4 7 2
8 -4 4 -11 -7 -16 8 -15 42 1 7 -2 11 -5 7 -5 -5 -37 67 -47 105 -2 8 -11 35
-20 60 -34 95 -76 253 -71 267 3 8 1 11 -4 8 -6 -3 -10 -1 -10 4 0 16 0 16
-19 85 -10 35 -17 78 -17 94 1 17 -2 28 -5 26 -12 -7 -17 34 -5 47 8 9 8 10
-1 5 -8 -5 -13 -1 -14 11 0 10 -2 25 -4 33 -1 8 -5 31 -9 50 -3 19 -7 44 -10
55 -2 11 -7 47 -10 80 -4 33 -9 71 -11 85 -11 76 -14 106 -21 220 -13 216 -7
615 11 740 3 24 10 80 21 170 3 25 7 52 9 60 2 8 7 31 10 50 3 19 7 46 10 60
16 84 15 88 -18 147 -84 149 -193 413 -182 441 3 9 3 13 -1 9 -9 -9 -35 65
-50 143 -3 14 -9 41 -14 60 -5 19 -12 51 -15 70 -3 19 -8 36 -10 39 -3 2 1 11
8 19 7 10 7 13 1 9 -22 -13 -39 166 -39 418 0 224 5 293 36 455 6 30 13 69 16
85 10 58 72 264 106 352 56 144 129 293 140 286 6 -3 7 -1 3 5 -20 33 339 535
376 524 5 -1 7 1 4 6 -7 12 108 124 118 115 4 -5 6 -3 4 3 -4 15 54 68 192
172 144 109 248 173 431 261 131 64 400 163 474 174 17 3 48 9 70 15 22 6 58
13 79 17 21 3 48 7 60 10 37 8 96 15 174 21 43 3 78 7 79 8 6 5 323 -2 378 -8z"/>
<path d="M5055 8302 c6 -11 -5 -13 -54 -10 -33 1 -61 -1 -61 -6 0 -5 -8 -2
-17 5 -14 12 -16 12 -9 0 7 -11 0 -13 -33 -9 -22 2 -41 -1 -41 -5 0 -5 -8 -3
-17 4 -14 12 -16 12 -9 0 7 -11 0 -13 -32 -9 -22 2 -38 -1 -35 -5 3 -5 -13 -8
-35 -5 -22 2 -38 0 -36 -3 2 -4 -9 -9 -26 -11 -19 -3 -27 -1 -23 6 5 8 2 7 -8
0 -24 -18 -51 -26 -43 -11 5 8 2 8 -9 -2 -9 -7 -24 -11 -32 -7 -8 3 -15 0 -15
-6 0 -6 -6 -5 -17 3 -14 12 -16 12 -8 0 6 -11 2 -13 -18 -9 -15 3 -24 1 -21
-4 3 -5 0 -8 -7 -7 -8 1 -22 -1 -32 -6 -9 -4 -26 -5 -37 -2 -13 3 -18 1 -14
-5 5 -7 -2 -9 -19 -6 -15 3 -24 2 -22 -3 7 -10 -52 -22 -66 -13 -8 5 -9 3 -4
-6 6 -10 3 -12 -13 -8 -12 4 -20 3 -17 -1 6 -11 -103 -43 -117 -35 -7 5 -8 3
-3 -6 6 -10 3 -12 -13 -8 -14 4 -20 2 -15 -5 4 -6 -2 -8 -15 -5 -14 4 -20 2
-15 -5 4 -7 0 -8 -11 -4 -11 5 -15 3 -10 -5 5 -7 0 -9 -14 -6 -14 4 -20 2 -15
-5 4 -6 -2 -8 -15 -5 -14 4 -20 2 -15 -5 4 -7 0 -8 -11 -4 -9 4 -14 3 -11 -2
7 -12 -31 -24 -46 -15 -8 5 -9 3 -4 -6 6 -10 4 -12 -9 -7 -11 5 -15 3 -10 -5
5 -8 2 -9 -10 -5 -11 5 -15 3 -10 -5 5 -8 2 -9 -10 -5 -11 5 -15 3 -10 -5 5
-8 2 -9 -10 -5 -11 5 -15 3 -10 -5 5 -8 2 -9 -10 -5 -11 5 -15 3 -10 -5 5 -8
2 -9 -10 -5 -11 5 -15 3 -10 -5 5 -8 1 -9 -12 -4 -10 4 -15 4 -11 0 10 -10
-31 -36 -45 -28 -7 5 -8 3 -3 -6 6 -10 4 -12 -9 -7 -10 4 -15 3 -11 -3 6 -9
-8 -14 -28 -11 -5 1 -6 -3 -2 -9 6 -9 -8 -14 -28 -11 -5 1 -6 -3 -2 -9 6 -9
-8 -14 -28 -11 -5 1 -6 -3 -2 -9 6 -9 -8 -14 -28 -11 -5 1 -6 -3 -3 -8 8 -13
-21 -34 -35 -25 -7 4 -9 3 -6 -3 9 -14 -19 -37 -33 -28 -6 4 -9 1 -8 -7 2 -7
-3 -12 -10 -10 -8 1 -11 -2 -8 -7 8 -12 -21 -34 -34 -26 -6 4 -9 1 -8 -7 2 -7
-3 -12 -10 -10 -6 1 -11 -4 -10 -10 2 -7 -3 -12 -10 -10 -6 1 -11 -4 -10 -10
2 -7 -3 -12 -10 -10 -6 1 -11 -4 -10 -10 2 -7 -3 -12 -10 -10 -6 1 -11 -4 -10
-10 2 -7 -3 -12 -10 -10 -6 1 -11 -4 -10 -10 2 -7 -2 -12 -9 -11 -8 2 -10 -4
-6 -15 3 -9 2 -14 -2 -10 -5 5 -13 -2 -20 -15 -6 -12 -17 -21 -24 -19 -7 1
-10 -2 -6 -8 3 -5 2 -10 -2 -10 -5 0 -13 -10 -18 -22 -6 -13 -16 -22 -22 -21
-6 1 -10 -5 -9 -15 0 -9 -4 -16 -10 -15 -7 1 -11 -5 -10 -15 0 -9 -5 -16 -12
-14 -6 1 -11 -1 -11 -5 3 -20 -2 -34 -11 -28 -6 3 -7 -1 -4 -9 3 -9 1 -16 -5
-16 -6 0 -10 -6 -9 -12 2 -7 -2 -12 -9 -11 -7 2 -10 -4 -7 -12 4 -8 1 -15 -5
-15 -6 0 -8 -7 -5 -15 4 -8 -1 -17 -10 -21 -9 -3 -14 -10 -11 -14 8 -12 -6
-41 -16 -34 -5 3 -6 -3 -2 -12 4 -12 3 -15 -5 -10 -8 5 -10 1 -5 -10 4 -11 3
-15 -4 -11 -7 5 -9 -1 -5 -15 3 -14 1 -19 -6 -14 -8 5 -10 1 -5 -10 4 -11 3
-15 -4 -11 -7 5 -9 -1 -5 -15 4 -16 2 -19 -8 -13 -9 5 -11 4 -6 -3 4 -6 -2
-41 -14 -78 -11 -36 -20 -77 -20 -91 0 -13 -3 -22 -7 -20 -17 10 -25 -385 -10
-498 19 -154 71 -317 144 -453 76 -142 161 -244 337 -407 28 -27 138 -107 201
-147 200 -129 476 -245 838 -352 134 -40 382 -105 460 -120 15 -3 37 -8 50
-11 12 -3 31 -7 42 -9 19 -4 374 -84 405 -92 17 -4 138 -34 160 -39 8 -2 42
-12 75 -21 33 -9 67 -17 75 -19 44 -9 239 -78 297 -105 128 -59 252 -144 321
-220 94 -102 146 -242 145 -385 -2 -100 -3 -116 -13 -110 -6 3 -7 -1 -4 -9 9
-23 -34 -158 -48 -150 -7 4 -8 3 -4 -4 7 -13 -23 -72 -36 -72 -4 0 -8 -4 -8
-10 0 -17 -43 -60 -53 -53 -6 3 -7 1 -4 -4 9 -14 -42 -65 -56 -56 -5 3 -7 1
-3 -5 8 -13 -33 -44 -47 -35 -6 3 -7 1 -4 -4 9 -14 -19 -37 -33 -28 -6 4 -9 1
-8 -7 2 -7 -5 -12 -14 -12 -10 1 -15 -2 -12 -7 5 -9 -11 -13 -31 -9 -5 1 -7
-2 -3 -6 11 -10 -30 -37 -44 -28 -7 5 -8 3 -3 -6 6 -10 4 -12 -9 -7 -11 5 -15
3 -10 -5 5 -8 2 -9 -10 -5 -11 5 -15 3 -10 -5 5 -8 2 -9 -10 -5 -9 4 -14 3
-11 -2 7 -12 -31 -24 -46 -15 -8 5 -9 3 -4 -6 6 -10 4 -12 -9 -7 -11 5 -15 3
-10 -5 5 -7 0 -9 -14 -6 -14 4 -20 2 -15 -5 4 -6 -2 -8 -15 -5 -14 4 -20 2
-15 -5 4 -6 -2 -8 -15 -5 -14 4 -20 2 -16 -4 5 -7 -2 -9 -19 -6 -15 3 -24 2
-22 -2 2 -4 -20 -14 -50 -22 -35 -10 -52 -11 -48 -4 4 6 -1 5 -10 -3 -9 -7
-24 -11 -32 -7 -8 3 -15 0 -15 -6 0 -6 -6 -5 -17 3 -14 12 -16 12 -8 0 6 -11
2 -13 -19 -9 -14 3 -26 2 -26 -2 0 -4 -20 -7 -45 -6 -25 1 -45 -2 -45 -7 0 -5
-8 -3 -17 4 -9 8 -14 9 -10 3 4 -8 -13 -12 -56 -13 -73 -1 -88 -1 -124 0 -16
1 -32 1 -38 -1 -5 -1 -34 -2 -63 -1 -39 1 -51 4 -46 14 6 9 4 9 -7 -1 -17 -16
-32 -16 -23 1 5 8 2 8 -9 -2 -9 -7 -17 -10 -17 -5 0 5 -15 9 -32 10 -80 2 -89
4 -82 16 5 7 3 8 -7 2 -15 -9 -57 -7 -74 4 -11 7 -17 8 -53 10 -13 1 -20 6
-17 12 3 5 0 7 -8 4 -21 -7 -129 35 -121 48 5 7 2 8 -5 3 -16 -9 -62 15 -54
28 3 6 1 7 -5 3 -14 -9 -63 14 -55 27 3 6 1 7 -5 3 -13 -8 -137 80 -195 139
-62 62 -129 154 -121 167 4 6 3 8 -4 5 -10 -7 -65 77 -65 100 0 7 -3 10 -7 8
-10 -6 -121 225 -114 238 4 7 3 9 -1 4 -5 -4 -21 20 -37 53 -15 33 -44 86 -64
118 -21 31 -37 62 -37 69 0 7 -3 11 -6 10 -12 -3 -131 130 -123 138 4 4 2 5
-5 1 -6 -3 -33 7 -59 24 -26 16 -54 30 -62 30 -7 0 -10 5 -6 12 4 7 3 8 -5 4
-6 -4 -23 0 -38 9 -14 9 -23 13 -19 7 4 -6 -2 -8 -14 -5 -11 3 -18 9 -15 13 3
5 -4 6 -15 3 -11 -3 -28 1 -37 8 -12 10 -14 10 -9 2 4 -7 3 -13 -3 -13 -5 0
-12 4 -16 10 -3 5 -13 6 -22 3 -22 -8 -64 -8 -86 0 -10 4 -17 2 -17 -5 0 -6
-6 -5 -17 3 -14 12 -16 12 -9 0 7 -11 0 -13 -32 -9 -23 2 -38 -1 -35 -6 3 -5
-6 -7 -20 -4 -16 3 -24 1 -20 -5 4 -6 -2 -8 -15 -5 -14 4 -20 2 -15 -5 4 -6
-2 -8 -15 -5 -14 4 -20 2 -15 -5 4 -7 0 -8 -11 -4 -11 5 -15 3 -10 -5 5 -8 2
-9 -10 -5 -11 5 -15 3 -10 -5 5 -8 2 -9 -10 -5 -11 5 -15 3 -10 -5 5 -8 2 -9
-10 -5 -11 5 -15 3 -10 -5 5 -8 2 -9 -10 -5 -9 4 -15 3 -12 -2 8 -12 -21 -34
-34 -26 -6 4 -9 2 -8 -3 4 -12 -89 -101 -98 -93 -4 3 -4 1 -1 -6 4 -6 0 -18
-8 -26 -8 -9 -15 -20 -15 -26 0 -6 -4 -11 -9 -11 -5 0 -12 -11 -15 -25 -4 -14
-11 -23 -16 -20 -6 4 -7 -1 -3 -11 4 -12 3 -15 -5 -10 -8 5 -10 1 -5 -10 4
-11 3 -15 -4 -11 -7 5 -9 -1 -5 -15 4 -16 2 -19 -8 -13 -8 5 -11 4 -6 -3 10
-16 -5 -93 -17 -85 -6 3 -7 1 -3 -5 4 -7 9 -56 11 -109 2 -54 6 -109 9 -123 3
-14 11 -50 17 -80 26 -126 103 -307 192 -450 252 -404 644 -700 1142 -862 92
-29 301 -83 365 -92 19 -3 46 -8 60 -11 13 -2 40 -7 60 -10 20 -3 45 -7 55 -9
11 -2 54 -7 95 -11 41 -4 89 -9 105 -11 203 -21 605 -21 810 1 17 1 59 5 95 9
36 3 74 8 85 10 11 2 40 7 65 10 49 7 58 8 170 31 107 22 106 22 205 49 533
146 962 432 1213 807 111 166 210 408 238 579 2 14 6 34 8 45 29 132 29 492 1
625 -3 14 -8 39 -10 55 -3 17 -12 54 -21 83 -8 29 -12 58 -8 64 5 7 3 8 -6 3
-10 -6 -12 -3 -8 13 4 12 3 20 -2 17 -4 -3 -11 7 -14 20 -12 46 -74 171 -120
240 -25 37 -43 71 -40 76 3 5 2 8 -3 7 -5 -2 -36 29 -70 67 -33 39 -79 88
-101 109 -23 22 -38 44 -35 49 3 6 1 7 -6 3 -6 -4 -18 0 -27 9 -9 8 -31 27
-50 41 -18 15 -31 31 -27 37 3 6 1 7 -5 3 -15 -9 -55 18 -44 29 4 5 2 5 -5 1
-7 -4 -21 2 -33 14 -11 11 -20 18 -20 15 0 -3 -28 12 -62 33 -35 20 -80 46
-100 57 -20 10 -34 23 -31 28 3 6 1 7 -5 3 -6 -4 -22 -1 -34 6 -13 7 -25 13
-28 14 -21 5 -39 17 -35 24 3 5 -5 6 -17 2 -11 -3 -19 -1 -16 4 4 5 -5 10 -19
11 -14 0 -29 7 -34 15 -5 7 -9 9 -9 5 0 -4 -10 -2 -22 5 -13 7 -25 13 -28 13
-29 5 -109 39 -105 45 3 4 -5 6 -17 2 -14 -3 -19 -1 -14 6 4 8 2 10 -8 6 -8
-3 -21 -2 -28 2 -7 5 -22 10 -33 11 -11 2 -21 8 -23 13 -2 5 -9 7 -15 4 -7 -2
-29 4 -49 15 -21 10 -35 15 -32 10 5 -8 -19 -3 -41 10 -5 3 -19 7 -30 8 -10 2
-30 11 -43 19 -14 9 -22 12 -18 6 7 -12 -112 24 -133 41 -11 9 -13 9 -8 0 9
-14 -78 12 -102 31 -11 8 -13 8 -8 -1 6 -9 0 -10 -25 -1 -18 6 -39 16 -47 22
-10 7 -13 7 -8 0 4 -6 -16 -5 -53 5 -32 8 -56 19 -53 25 3 5 1 6 -6 2 -16 -10
-432 85 -424 97 3 6 1 7 -6 3 -17 -11 -92 4 -84 16 3 7 1 8 -6 4 -7 -4 -65 5
-129 20 -64 15 -120 27 -124 26 -5 -1 -8 2 -8 6 0 4 -8 8 -17 9 -40 2 -182 42
-193 53 -3 3 -11 5 -17 6 -40 3 -44 5 -37 16 4 7 3 8 -5 4 -13 -8 -53 2 -47
12 2 4 -6 8 -17 8 -35 3 -167 66 -160 77 3 6 1 7 -5 3 -15 -9 -55 18 -44 29 4
5 2 5 -5 1 -14 -8 -65 22 -58 34 3 4 -3 7 -13 6 -9 0 -16 5 -14 12 1 8 -2 11
-9 7 -17 -11 -128 109 -154 168 -42 91 -52 194 -30 291 20 90 110 212 213 288
84 62 249 139 348 163 10 3 46 11 79 20 96 23 186 30 405 30 197 -1 227 -3
350 -25 89 -16 92 -17 160 -41 225 -78 383 -233 584 -573 92 -155 173 -266
245 -333 50 -47 146 -98 201 -107 19 -3 46 -8 60 -11 33 -7 187 -7 225 0 60
11 153 46 199 76 140 88 256 255 281 404 7 45 7 186 0 193 -3 3 1 12 8 20 7
10 8 13 1 9 -8 -5 -14 9 -19 41 -4 26 -20 85 -35 131 -16 46 -26 89 -23 94 3
6 1 7 -4 4 -6 -4 -20 16 -33 46 -12 28 -40 78 -61 111 -21 32 -36 63 -32 69 3
6 1 7 -5 3 -11 -7 -38 32 -34 47 1 5 -2 6 -7 3 -10 -6 -68 64 -63 77 1 5 -2 6
-6 3 -12 -7 -44 28 -35 39 5 4 3 5 -3 2 -6 -4 -22 5 -35 20 -13 14 -69 62
-124 106 -55 44 -99 84 -97 89 1 5 -2 7 -8 3 -5 -3 -23 3 -38 14 -16 11 -58
37 -95 59 -37 21 -64 42 -60 47 5 4 3 5 -4 1 -15 -8 -124 45 -116 57 3 6 1 7
-6 3 -16 -10 -53 3 -45 16 4 6 2 8 -4 5 -5 -4 -51 9 -102 28 -50 19 -98 35
-106 35 -9 0 -12 4 -9 10 3 5 0 7 -9 4 -8 -3 -21 -2 -28 2 -7 5 -19 10 -25 11
-30 7 -48 12 -50 13 -5 4 -23 7 -44 9 -11 0 -18 5 -15 10 4 5 -4 7 -16 3 -16
-4 -19 -2 -13 9 8 12 6 12 -8 0 -11 -8 -17 -9 -17 -3 0 6 -7 9 -15 6 -8 -3
-28 1 -45 9 -17 9 -28 12 -25 7 3 -4 -4 -6 -15 -3 -11 3 -17 10 -13 17 4 6 -1
5 -10 -3 -9 -7 -17 -9 -17 -4 0 6 -11 8 -24 6 -13 -3 -27 0 -30 6 -4 5 -13 8
-21 4 -8 -3 -23 -2 -32 2 -10 4 -33 7 -50 6 -18 -2 -38 1 -45 5 -7 5 -27 7
-45 5 -18 -1 -38 1 -45 5 -6 4 -36 6 -66 5 -43 -2 -52 0 -46 11 6 11 5 11 -8
0 -13 -10 -17 -10 -21 0 -4 11 -6 10 -6 0 -1 -7 -6 -10 -12 -7 -15 10 -478 12
-472 3 7 -13 -12 -9 -26 5 -11 10 -12 9 -6 -1z"/>
</g>
</svg>
